Coordinates
version=1
nRows=26
nColumns=24
inDegrees=yes

Units are S.I. units (second, meters, Newtons, ...)
Angles are in degrees.

endheader
time	pelvis_tilt	pelvis_list	pelvis_rotation	pelvis_tx	pelvis_ty	pelvis_tz	hip_flexion_r	hip_adduction_r	hip_rotation_r	knee_angle_r	ankle_angle_r	subtalar_angle_r	mtp_angle_r	hip_flexion_l	hip_adduction_l	hip_rotation_l	knee_angle_l	ankle_angle_l	subtalar_angle_l	mtp_angle_l	lumbar_extension	lumbar_bending	lumbar_rotation
      4.86000000	    -11.72428643	     -8.60524134	      6.79209683	     -1.39974368	     -0.03254408	      0.46946985	     27.64959936	      8.23691814	    -10.01139827	    -22.72053035	     -0.95967666	     -3.12021440	      6.41082037	     18.11514104	     -9.69173206	      8.05893958	    -60.57493422	    -24.48158172	     -3.41662502	     23.92624378	      4.54425805	      5.40227016	     -3.45134376
      4.86500000	    -11.62851684	     -8.43413522	      6.74505453	     -1.39361795	     -0.03141687	      0.47037319	     26.93381094	      8.25163257	     -9.88370399	    -22.43902615	     -0.61841754	     -2.86438428	      6.48710017	     18.83738178	     -9.31150342	      8.14272827	    -61.31318758	    -23.99811770	     -4.53818884	     23.47628837	      4.39281123	      5.17292157	     -3.17132140
      4.87000000	    -11.54789418	     -8.24871919	      6.67571393	     -1.38755632	     -0.03029566	      0.47133399	     26.22368536	      8.26184705	     -9.70977426	    -22.13506735	     -0.27261747	     -2.61226294	      6.57919659	     19.56982091	     -8.93784780	      8.18347901	    -61.96089000	    -23.45488858	     -5.43673781	     23.19046949	      4.25241954	      4.92605601	     -2.88949087
      4.87500000	    -11.50808066	     -8.09616439	      6.64936496	     -1.38151288	     -0.02916836	      0.47231003	     25.53650073	      8.29427506	     -9.57935322	    -21.76210423	     -0.09320154	     -2.56330839	      6.57672590	     20.34484022	     -8.58360365	      8.31937218	    -62.49065313	    -22.77190202	     -5.99617737	     23.29662088	      4.16980369	      4.68964778	     -2.62785472
      4.88000000	    -11.46027754	     -7.73781118	      6.48764353	     -1.37545589	     -0.02791419	      0.47325276	     24.81623435	      8.14279148	     -9.26387185	    -21.43014373	      0.28719152	     -2.17229603	      6.79156535	     21.00336426	     -8.05470634	      8.17770612	    -62.87931776	    -22.20002310	     -6.66639541	     23.00748428	      4.05706296	      4.28077313	     -2.27275685
      4.88500000	    -11.44575056	     -7.51538986	      6.44111701	     -1.36944416	     -0.02672465	      0.47415318	     24.11585923	      8.09778825	     -9.02617954	    -21.00504145	      0.48851957	     -2.01918095	      6.82282937	     21.75880785	     -7.63804073	      8.21195009	    -63.20213765	    -21.54971147	     -7.08145100	     23.04381684	      4.00889222	      3.98393656	     -2.02969823
      4.89000000	    -11.43860794	     -7.11076644	      6.23901984	     -1.36343862	     -0.02545851	      0.47516904	     23.44340550	      7.90225647	     -8.73661574	    -20.67060300	      0.74312869	     -1.76903775	      6.94447289	     22.40373397	     -7.09402250	      8.01466116	    -63.36813452	    -20.77903150	     -7.30655213	     23.02242585	      3.93824710	      3.51828751	     -1.60748346
      4.89500000	    -11.44975736	     -6.74063507	      6.06631780	     -1.35745696	     -0.02421483	      0.47616326	     22.77540728	      7.73231244	     -8.41320174	    -20.28857295	      0.94228746	     -1.57485734	      7.01458566	     23.07416292	     -6.58378660	      7.84879274	    -63.44912198	    -20.00495883	     -7.42985843	     23.05608019	      3.90105729	      3.08283397	     -1.24584882
      4.90000000	    -11.47467298	     -6.34548166	      5.86706666	     -1.35151500	     -0.02297465	      0.47714849	     22.12514010	      7.53658447	     -8.05913773	    -19.90714065	      1.10754455	     -1.40602607	      7.07876104	     23.73247310	     -6.06518489	      7.63651231	    -63.42827441	    -19.20352178	     -7.43867999	     23.12088334	      3.88022787	      2.62845575	     -0.85910808
      4.90500000	    -11.51480012	     -5.92633490	      5.64464198	     -1.34558304	     -0.02174951	      0.47816034	     21.49060269	      7.31861149	     -7.67597185	    -19.52127912	      1.24455756	     -1.26933249	      7.13609935	     24.37718145	     -5.53973638	      7.38737995	    -63.30494060	    -18.39585269	     -7.36916853	     23.19909128	      3.87721675	      2.15022845	     -0.47680704
      4.91000000	    -11.55842736	     -5.50198924	      5.39186294	     -1.33968977	     -0.02055016	      0.47917623	     20.86690416	      7.09734040	     -7.27023515	    -19.13587684	      1.35057991	     -1.15511748	      7.18858815	     25.00383664	     -5.03156318	      7.09629918	    -63.09102898	    -17.58475553	     -7.24499893	     23.27153976	      3.88191330	      1.67437229	     -0.06561334
      4.91500000	    -11.59143824	     -5.09226416	      5.08568797	     -1.33384757	     -0.01938629	      0.48020132	     20.24237248	      6.90184519	     -6.79985301	    -18.75359683	      1.41123192	     -1.05647195	      7.24102637	     25.59879478	     -4.56535142	      6.76699518	    -62.80329353	    -16.74688033	     -7.06579684	     23.29916034	      3.87417104	      1.23017910	      0.43826205
      4.92000000	    -11.60678576	     -4.69876801	      4.77868220	     -1.32797916	     -0.01826101	      0.48123986	     19.58136876	      6.72973773	     -6.28939347	    -18.32371179	      1.42197482	     -1.09516132	      7.27818957	     26.16415801	     -4.14472327	      6.39792754	    -62.44704504	    -15.89883829	     -6.85874007	     23.16483608	      3.86452925	      0.80451824	      0.85719688
      4.92500000	    -11.65380774	     -4.28039292	      4.47009919	     -1.32215645	     -0.01718983	      0.48219024	     18.98288497	      6.49940067	     -5.88422295	    -17.93912243	      1.46580788	     -1.01175786	      7.32299681	     26.73827420	     -3.68435734	      6.04892418	    -61.97901520	    -15.20223241	     -6.75612982	     23.20218482	      3.89303442	      0.36229343	      1.30189995
      4.93000000	    -11.69416575	     -3.88430484	      4.18540857	     -1.31630224	     -0.01620535	      0.48313743	     18.36447941	      6.28673470	     -5.48371150	    -17.52316296	      1.52953914	     -0.99038928	      7.31931823	     27.30299269	     -3.25903850	      5.70195947	    -61.44788675	    -14.57125971	     -6.70820968	     23.19348499	      3.93030748	     -0.06211164	      1.65618362
      4.93500000	    -11.69772666	     -3.50644869	      3.80380116	     -1.31048991	     -0.01524578	      0.48406010	     17.71995548	      6.10874101	     -4.99246362	    -17.11790748	      1.54461395	     -0.95655418	      7.30330890	     27.79650039	     -2.89752396	      5.28067587	    -60.84547966	    -13.92312527	     -6.68987667	     23.12090767	      3.92905452	     -0.42465115	      2.13600328
      4.94000000	    -11.64527948	     -3.19305423	      3.39710053	     -1.30467633	     -0.01432595	      0.48501889	     17.00413456	      6.00898236	     -4.45679087	    -16.67325572	      1.51611638	     -0.98616527	      7.25272119	     28.22822475	     -2.63560887	      4.84512488	    -60.20044259	    -13.31183063	     -6.73858662	     22.89067046	      3.88009020	     -0.72067369	      2.66210816
      4.94500000	    -11.63196730	     -2.85863210	      3.03569320	     -1.29885817	     -0.01350963	      0.48588420	     16.34873428	      5.85099344	     -4.04714504	    -16.25956010	      1.51997580	     -0.99214283	      7.19732077	     28.68792787	     -2.33401118	      4.44498736	    -59.47182600	    -12.77428465	     -6.83432111	     22.70980190	      3.88036174	     -1.04042367	      3.06852942
      4.95000000	    -11.56911494	     -2.58590250	      2.64024593	     -1.29302802	     -0.01275145	      0.48672571	     15.62051322	      5.76246820	     -3.56775514	    -15.80066401	      1.52997315	     -1.00855924	      7.10337962	     29.09212705	     -2.12470988	      4.02866618	    -58.70857505	    -12.30035633	     -7.00421949	     22.42874387	      3.84058185	     -1.27349101	      3.53991246
      4.95500000	    -11.53023103	     -2.30353078	      2.26201835	     -1.28719799	     -0.01207929	      0.48753579	     14.93462841	      5.64368743	     -3.16072616	    -15.36844033	      1.55103670	     -1.01498168	      7.00083334	     29.50345194	     -1.90850139	      3.62174762	    -57.86585519	    -11.86762119	     -7.19463813	     22.17170469	      3.83240047	     -1.52132479	      3.92009549
      4.96000000	    -11.45691976	     -2.06300052	      1.85852686	     -1.28136670	     -0.01145908	      0.48830453	     14.20319698	      5.56446489	     -2.71960092	    -14.91373154	      1.57148542	     -1.01898402	      6.86758180	     29.86965018	     -1.75710602	      3.20188871	    -56.98051910	    -11.48855256	     -7.43357825	     21.84959309	      3.79335629	     -1.70749311	      4.34956642
      4.96500000	    -11.38469236	     -1.83795435	      1.46805985	     -1.27552764	     -0.01091299	      0.48904452	     13.47623391	      5.48716959	     -2.31483637	    -14.46146645	      1.60460596	     -1.03142373	      6.72545423	     30.22285194	     -1.62557974	      2.80433580	    -56.03464709	    -11.14726791	     -7.66404982	     21.51274466	      3.76344742	     -1.87533313	      4.74120882
      4.97000000	    -11.30239787	     -1.62893119	      1.07063867	     -1.26972744	     -0.01041852	      0.48974496	     12.74462992	      5.41458649	     -1.92370877	    -14.00925550	      1.62304202	     -1.03657588	      6.57177981	     30.55283690	     -1.52144798	      2.40900973	    -55.03478116	    -10.82852837	     -7.88497680	     21.15227954	      3.71730761	     -2.01832498	      5.13484894
      4.97500000	    -11.23660381	     -1.42398859	      0.69881858	     -1.26391513	     -0.01002141	      0.49039242	     12.02554247	      5.32844271	     -1.54351902	    -13.54857997	      1.68925916	     -1.03494748	      6.43322716	     30.88730982	     -1.41987339	      2.03612674	    -53.97834738	    -10.53393173	     -8.05907597	     20.81273494	      3.69515109	     -2.15244306	      5.48908151
      4.98000000	    -11.16518807	     -1.23038965	      0.31433319	     -1.25811252	     -0.00965776	      0.49103739	     11.31236331	      5.24557460	     -1.19823079	    -13.10200392	      1.72974606	     -1.02421372	      6.29013138	     31.18835491	     -1.34663887	      1.66048587	    -52.84890083	    -10.23933407	     -8.19894230	     20.47089259	      3.66664403	     -2.27493176	      5.84250325
      4.98500000	    -11.09747836	     -1.03495591	     -0.06642893	     -1.25231566	     -0.00934711	      0.49166112	     10.61066600	      5.14900788	     -0.88033707	    -12.66472271	      1.77260291	     -1.01210768	      6.15377658	     31.46743607	     -1.27898639	      1.29373940	    -51.64905528	     -9.93997485	     -8.27396360	     20.13955583	      3.64222083	     -2.39575326	      6.16776766
